<?xml version="1.0" standalone="yes"?>
<svg xmlns="http://www.w3.org/2000/svg" width="1024" height="1024">
<path style="fill:#01145d; stroke:none;" d="M0 0L0 1024L1024 1024L1024 0L0 0z"/>
<path style="fill:#f4061b; stroke:none;" d="M498 88L498 265L522 265L522 88L498 88z"/>
<path style="fill:#fbfbfc; stroke:none;" d="M150 509L172 509C172 471.662 183.012 433.139 197.579 399C241.468 296.141 335.558 217.225 446 196.389C463.035 193.175 480.613 190.048 498 190L498 168C477.879 168 457.704 171.06 438 175C313.688 199.859 211.566 292.245 169.308 411C158.288 441.969 150 475.986 150 509M522 168L522 190C642.81 190.014 759.027 266.993 813.742 373C827.664 399.974 838.495 429.276 844.789 459C848.226 475.232 848.988 491.779 852 508L873 509C873 470.907 862.665 431.189 848.6 396C830.446 350.58 803.952 309.218 769.83 274.089C706.401 208.79 613.308 168 522 168z"/>
<path style="fill:#01145d; stroke:none;" d="M172 509L264 509L264 532L171 532C171 647.562 232.328 757.092 330 818.947C357.197 836.171 387.119 848.619 418 857.421C443.641 864.73 471.294 869.779 498 870L498 786L522 786L522 870C632.812 870 740.53 806.718 799.564 714C834.237 659.543 852 596.348 852 532L754 532L754 509L852 509C847.289 449.318 828.7 391.07 795.484 341C736.19 251.62 630.419 190 522 190L522 265L498 265L498 190C480.26 190.012 462.382 193.11 445 196.389C334.904 217.16 241.34 295.442 197.579 398C182.839 432.544 172 471.246 172 509z"/>
<path style="fill:#fbfbfc; stroke:none;" d="M487 468C485.399 473.007 484.11 477.717 484 483C470.673 482.426 457.209 479.158 444 477.286C419.016 473.743 393.16 471.584 368 473.925C354.949 475.139 331.898 478.71 327 493C345.438 489.424 363.25 486.374 382 485.089C414.842 482.84 448.191 486 481 486C472.456 488.526 462.724 486.687 454 486.089C443.754 485.388 433.27 486 423 486L422 490C421.014 488.521 421 488.797 421 487C403.402 487 385.597 485.494 368 487.17C354.113 488.492 340.759 492.223 327 494C330.064 500.431 336.802 503.312 343 506.218C349.545 509.287 359.627 513.85 367 513.309C372.405 512.913 378.235 508.628 383 506.247C394.058 500.721 405.92 493.796 418 491C402.623 499.751 385.321 505.057 370 514C377.476 518.485 390.452 517.997 399 518C419.134 518.008 439.587 518.149 459 511.971C468.328 509.003 478.726 503.164 483 494L485 494C487.292 503.068 481.071 506.939 475 513C468.218 519.771 461.106 526.4 454 532.83C449.717 536.706 444.107 540.444 441.858 546C439.413 552.04 440.256 561.489 439.961 568C439.461 578.999 437.894 590.019 437.089 601C436.579 607.956 437.004 616.307 434.772 622.96C433.291 627.372 428.723 629.354 425 631.601C418.648 635.435 412.329 639.319 406 643.189C403.173 644.917 398.864 646.5 397.028 649.39C394.461 653.429 394.736 662.198 393.919 667C391.678 680.179 390.117 695.278 385.772 707.911C384.312 712.154 379.755 715.654 376.87 719C370.554 726.323 364.367 733.767 357.95 741C355.68 743.558 348.674 749.555 351.086 753.547C354.245 758.773 361.01 749.084 362.845 747C369.295 739.676 375.622 732.237 382.17 725C385.883 720.896 390.587 717.36 392.518 712C396.951 699.691 399.081 685.789 401.789 673C402.971 667.421 402.818 659.798 406.514 655.185C412.504 647.708 424.915 642.609 433 637.576C436.195 635.587 441.817 633.424 443.397 629.787C445.593 624.731 444.705 616.492 445.09 611C445.956 598.642 448.044 586.358 448.91 574C449.399 567.034 448.402 557.52 450.894 551C452.579 546.59 456.584 543.723 460 540.714C465.426 535.936 470.866 531.091 476 526L476 577C476.009 582.882 475.375 591.907 482 594C484.624 584.663 483.62 575.568 484.039 566C484.886 546.664 484.676 526.862 489 508L491 508C492.073 511.363 495.448 514.936 495.535 518.424C495.693 524.712 492.055 531.362 492 538L528 538C527.231 532.041 523.202 523.849 524.449 518C525.124 514.834 527.618 511.912 529 509C533.698 516.118 531.999 525.772 532 534C532.001 546.321 533 558.626 533 571C533 578.932 531.863 587.565 535 595L537 595C543.083 583.395 540.488 569.598 541.039 557C541.501 546.465 543.485 535.438 541 525C546.581 530.078 551.505 535.76 557.001 540.911C559.946 543.67 563.744 546.092 565.258 550.004C567.433 555.625 566.572 563.056 567.286 569C569.08 583.953 570.489 599.146 572.92 614C573.67 618.582 573.044 624.635 574.893 628.867C576.721 633.049 583.257 635.153 587 637.281C596.167 642.492 609.525 647.489 616.683 655.329C620.341 659.335 620.296 666.893 621.424 672C624.274 684.902 626.798 698.44 630.928 710.996C632.746 716.522 638.138 720.835 642.025 725C648.69 732.142 655.023 739.621 661.424 747C663.394 749.271 669.825 758.037 673.288 753.623C676.58 749.427 667.754 742.715 665.428 740L646.572 718C642.979 713.804 639.047 710.504 637.595 705C634.031 691.488 631.693 677.661 628.789 664C627.909 659.857 628.191 651.807 625.397 648.637C623.119 646.054 618.947 644.683 616 642.999C609.018 639.011 602.021 635.057 595 631.14C591.293 629.072 585.391 627.028 583.589 622.895C580.937 616.813 581.462 608.497 580.83 602C579.565 588.98 577.51 576.004 576.05 563C575.391 557.131 576.067 549.39 573.566 544C571.373 539.271 566.62 535.62 563 532C556.462 525.462 550.243 518.721 543.911 512.004C537.867 505.593 532.845 503.402 534 494C541.955 499.604 547.808 506.19 557 510.127C587.006 522.979 621.697 517.471 653 515C650.061 510.513 643.695 508.594 639 506.247C627.54 500.517 614.708 492.258 602 490L602 486L545 487C549.625 485.633 554.232 486.237 559 485.911C568.703 485.246 578.247 485 588 485C610.949 485 634.157 483.987 657 486.17C669.988 487.411 683.064 491.436 696 492C689.347 478.038 665.669 474.913 652 473.911C627.512 472.116 603.33 474.082 579 477.282C564.803 479.148 550.326 482.704 536 483C535.762 477.476 534.224 472.354 533 467C541.673 463.712 549.478 456.521 557 451.14L600 420.421C605.645 416.386 611.214 412.187 617 408.356C619.665 406.591 623.977 405.195 625.821 402.502C628.671 398.34 628.25 389.013 629.08 384C630.885 373.101 634.258 364.127 638.579 354C644.249 340.711 649.921 327.446 655.203 314C656.193 311.481 661.329 302.197 656.721 300.752C652.556 299.445 650.141 307.36 649 310C644.226 321.049 639.319 332.058 634.309 343C630.287 351.782 624.21 361.512 622.314 371C620.778 378.685 621.357 391.65 615.686 397.621C609.442 404.196 599.484 409.193 592 414.341C578.2 423.834 564.625 433.681 551 443.421C543.643 448.681 534.404 453.678 529 461C526.721 458.87 524.819 457.299 522 456L522 454C529.21 449.83 528.214 442.985 526 436C537.418 431.074 548.471 423.317 559 416.681C562.987 414.168 569.345 411.656 571.987 407.621C574.166 404.292 574.236 398.821 575.293 395C578.398 383.777 581.33 372.382 583.79 361C585.794 351.733 592.38 336.925 588 328C582.622 333.115 581.879 343 580.127 350C577.197 361.702 573.952 373.333 570.884 385C569.448 390.463 568.757 396.823 566.197 401.895C563.82 406.605 557.329 409.003 553 411.6C542.385 417.969 531.57 426.621 520 431C518.223 426.626 514.302 425.482 512.026 421.737C510.708 419.567 510.723 416.417 510 414C508.394 416.681 508.638 420.05 506.976 422.61C504.751 426.039 500.917 427.102 499 431C488.828 424.729 479.009 417.878 469 411.344C464.918 408.679 458.792 406.391 456.43 401.896C453.408 396.146 452.792 388.289 451.349 382C448.667 370.312 445.512 358.727 443 347C442.004 342.352 441.026 337.585 439.607 333.045C439.162 331.619 438.599 329.484 436.845 329.176C432.576 328.425 434.93 337.156 435.25 339C437.117 349.751 439.675 360.372 442.119 371C444.03 379.313 445.746 387.67 447.576 396C448.395 399.731 448.549 404.494 450.857 407.671C453.031 410.664 456.971 412.367 460 414.344C466.654 418.689 473.315 423.01 480 427.308C483.409 429.499 487.917 431.405 490.592 434.518C495.933 440.734 486.666 449.551 496 455C494.521 456.963 492.908 459.56 489.995 458.799C486.455 457.873 482.892 453.557 480 451.374L455 432.627C443.781 424.212 432.406 416.019 421 407.86C416.521 404.655 408.951 401.44 406.024 396.674C401.557 389.403 403.51 377.186 401.215 369C396.808 353.276 388.238 338.089 382.011 323C379.665 317.316 377.352 311.617 374.846 306.001C373.88 303.836 372.737 300.368 369.951 300.037C366.998 299.686 366.419 302.831 366.844 305.015C368.028 311.099 371.53 317.188 373.681 323C379.598 338.985 388.391 354.545 392.841 371C395.44 380.608 393.065 392.668 397.032 401.787C398.444 405.031 402.228 406.361 405 408.206C410.147 411.632 415.056 415.418 420 419.127C433.922 429.568 448.079 439.686 462 450.127C470.047 456.162 477.888 463.67 487 468M604 487C607.853 492.832 618.823 495.16 625 498.247C634.52 503.004 645.506 510.776 656 512.886C659.865 513.663 664.361 511.817 668 510.656C677.413 507.651 691.369 503.477 696 494C665.626 486.138 635.107 487 604 487z"/>
<path style="fill:#01145d; stroke:none;" d="M418.667 490.333C418.222 490.778 419.278 490.722 419.333 490.667C419.778 490.222 418.722 490.278 418.667 490.333z"/>
<path style="fill:#f4061b; stroke:none;" d="M754 509L754 532L943 532L943 509L754 509M79 509L79 532L264 532L264 509L79 509z"/>
<path style="fill:#fbfbfc; stroke:none;" d="M149 532C149 652.694 211.844 768.5 313 834.656C343.837 854.823 377.555 869.572 413 879.424C440.404 887.042 469.525 892 498 892L498 870C471.551 869.454 444.418 864.667 419 857.421C388.119 848.619 358.197 836.171 331 818.947C233.48 757.188 171 647.624 171 532L149 532M852 532C852 595.931 833.987 658.936 799.564 713C740.636 805.552 632.86 870 522 870L522 892C544.219 892 566.238 888.809 588 884.449C710.839 859.837 812.512 767.435 854.308 650C867.676 612.439 874 571.777 874 532L852 532M491 540C490.251 544.036 490.003 547.899 490 552C502.511 552 516.8 550.095 529 553C529 549.855 530.047 544.223 527.972 541.603C525.975 539.082 520.803 540 518 540L491 540M489 567L530 567L530 554L501 554C498.02 554 492.147 552.927 490.028 555.603C487.953 558.223 489 563.855 489 567M489 569L489 600L531 600L530 584L490 584C501.922 580.476 517.574 583 530 583L530 569L489 569M489 601C489 606.433 487.155 616.958 490.988 621.397C493.142 623.891 497.232 622.61 500 622.286C506.613 621.511 513.344 623.003 520 623C522.429 622.999 526.216 623.624 528.258 621.972C530.67 620.021 529.899 615.708 530.089 613C530.3 610.002 532.051 605.255 529.971 602.603C528.604 600.86 525.973 601.042 523.999 601.005C519.003 600.91 513.997 601 509 601L489 601M491 624C491.014 628.918 490.718 637.427 494.14 641.397C495.789 643.31 498.729 642.984 501.001 642.999C506.333 643.036 511.668 643.011 517 643C519.235 642.995 522.377 643.446 524.272 641.972C528.236 638.89 528.412 628.628 529 624L491 624M494 645C495.247 648.832 496.166 654.586 499.419 657.258C502.843 660.069 516.769 660.685 520.005 657.397C522.903 654.452 523.659 648.91 524 645L494 645M500 660C501.587 663.677 504.379 670.503 509 671.079C514.028 671.705 516.914 663.69 518 660L500 660z"/>
<path style="fill:#f4061b; stroke:none;" d="M498 786L498 948L522 948L522 786L498 786z"/>
</svg>
